Coordinates
version=1
nRows=22
nColumns=24
inDegrees=yes

Units are S.I. units (second, meters, Newtons, ...)
Angles are in degrees.

endheader
time	pelvis_tilt	pelvis_list	pelvis_rotation	pelvis_tx	pelvis_ty	pelvis_tz	hip_flexion_r	hip_adduction_r	hip_rotation_r	knee_angle_r	ankle_angle_r	subtalar_angle_r	mtp_angle_r	hip_flexion_l	hip_adduction_l	hip_rotation_l	knee_angle_l	ankle_angle_l	subtalar_angle_l	mtp_angle_l	lumbar_extension	lumbar_bending	lumbar_rotation
      6.54500000	     35.76619276	     -1.66265175	     -0.29063903	      1.29513436	      0.65603454	     -0.22198740	    -51.96483934	      3.32061556	     -4.76991474	    -11.55694764	     25.19020517	     15.17091715	      0.00000000	    -12.95686133	     -0.98664741	     -9.60159597	     -1.26648632	      9.21768343	     12.19453566	      0.00000000	    -61.50750993	      0.81199014	      2.52568571
      6.55000000	     35.77880292	     -1.71947907	     -0.52916737	      1.30089031	      0.65589642	     -0.22214808	    -52.17335633	      3.05027623	     -4.65289015	    -12.21883952	     24.70627817	     15.35206167	      0.00000000	    -13.08389378	     -0.99050659	     -9.46175041	     -1.54845549	      9.25572921	     12.25271260	      0.00000000	    -61.44113119	      0.64079175	      2.49446404
      6.55500000	     35.89809210	     -1.81208195	     -0.89812428	      1.30662132	      0.65590009	     -0.22226770	    -52.43022877	      2.67773909	     -4.46980688	    -12.98655989	     24.23063893	     15.61563911	      0.00000000	    -13.35669683	     -0.99019358	     -9.42763986	     -1.91877243	      9.18813424	     12.24717859	      0.00000000	    -61.49581626	      0.37784954	      2.67599339
      6.56000000	     35.91404457	     -1.79929763	     -1.09223575	      1.31246908	      0.65583498	     -0.22241212	    -52.55001439	      2.39060949	     -4.46360354	    -13.82688589	     23.66793243	     15.74904278	      0.00000000	    -13.45711858	     -0.93993533	     -9.25744464	     -2.45698744	      9.12712529	     12.35428191	      0.00000000	    -61.41906819	      0.15368085	      2.59717970
      6.56500000	     35.96328052	     -1.83581339	     -1.35338905	      1.31834162	      0.65589610	     -0.22264512	    -52.65512576	      2.05247085	     -4.45531181	    -14.73413019	     22.94801952	     15.98220332	      0.00000000	    -13.61134606	     -0.90221234	     -9.18927161	     -3.06722618	      8.94632482	     12.39781757	      0.00000000	    -61.38298873	     -0.02693510	      2.52756214
      6.57000000	     36.13300551	     -1.89438874	     -1.77156022	      1.32426531	      0.65608845	     -0.22282701	    -52.80069171	      1.57210151	     -4.37909881	    -15.80591900	     22.24893685	     16.37875761	      0.00000000	    -13.98702157	     -0.81640841	     -9.27416781	     -3.61150786	      8.68399715	     12.34439087	      0.00000000	    -61.44841800	     -0.33953810	      2.72217796
      6.57500000	     36.26849934	     -1.87591402	     -2.08911561	      1.33025213	      0.65628853	     -0.22300539	    -52.87493993	      1.13320647	     -4.41863828	    -16.93675758	     21.39528130	     16.60139546	      0.00000000	    -14.29204551	     -0.68330015	     -9.31078122	     -4.24765803	      8.35396089	     12.41133503	      0.00000000	    -61.47085531	     -0.63078788	      2.69884771
      6.58000000	     36.35110231	     -1.83497293	     -2.29470421	      1.33622314	      0.65648536	     -0.22326552	    -52.82328282	      0.76697619	     -4.57355609	    -18.17732953	     20.41325693	     16.78964596	      0.00000000	    -14.49371237	     -0.55488858	     -9.24683311	     -4.97621783	      8.00027153	     12.46419098	      0.00000000	    -61.44748858	     -0.84208430	      2.58300809
      6.58500000	     36.44931029	     -1.78286739	     -2.51776356	      1.34221475	      0.65674902	     -0.22354048	    -52.71466191	      0.36211178	     -4.77723287	    -19.53070528	     19.33084243	     17.01776847	      0.00000000	    -14.73143573	     -0.39458782	     -9.17593415	     -5.69980125	      7.57147237	     12.45008817	      0.00000000	    -61.43717981	     -1.07562269	      2.48914106
      6.59000000	     36.56131371	     -1.71369878	     -2.74498641	      1.34821955	      0.65707411	     -0.22383411	    -52.54969339	     -0.07281586	     -5.03266002	    -20.98449782	     18.12541149	     17.24382772	      0.00000000	    -14.99496754	     -0.20058022	     -9.09266738	     -6.42337989	      7.10086300	     12.37660055	      0.00000000	    -61.43792344	     -1.31693174	      2.39098236
      6.59500000	     36.68617510	     -1.62324478	     -2.96952337	      1.35422936	      0.65745238	     -0.22415261	    -52.32580521	     -0.53608466	     -5.33907559	    -22.53622847	     16.78980530	     17.44944562	      0.00000000	    -15.28214665	      0.03074874	     -8.97572329	     -7.13905697	      6.60777750	     12.22320333	      0.00000000	    -61.45075139	     -1.56792576	      2.28576413
      6.60000000	     36.82881970	     -1.49187842	     -3.18428467	      1.36024331	      0.65786946	     -0.22451141	    -52.05726210	     -1.03583982	     -5.70331071	    -24.16646077	     15.34315334	     17.60866361	      0.00000000	    -15.58155009	      0.32620185	     -8.73775810	     -7.87321014	      6.10228791	     11.82846305	      0.00000000	    -61.48046298	     -1.83463309	      2.17282630
      6.60500000	     36.96239505	     -1.37428060	     -3.35594773	      1.36621796	      0.65833613	     -0.22486538	    -51.70012538	     -1.49955619	     -6.10404779	    -25.88459992	     13.70317835	     17.70107442	      0.00000000	    -15.88861981	      0.58695202	     -8.58696520	     -8.57008550	      5.65206914	     11.70462117	      0.00000000	    -61.50965846	     -2.05518540	      2.00838697
      6.61000000	     37.09365408	     -1.23482908	     -3.52002407	      1.37218728	      0.65884446	     -0.22525616	    -51.27289738	     -1.98631195	     -6.53266466	    -27.66994562	     11.91988948	     17.68991819	      0.00000000	    -16.20263412	      0.88819528	     -8.34854648	     -9.24887774	      5.21339565	     11.41251260	      0.00000000	    -61.53831688	     -2.28074441	      1.84430556
      6.61500000	     37.14478539	     -1.02183121	     -3.46382173	      1.37802232	      0.65925891	     -0.22588407	    -50.69851783	     -2.35970423	     -7.13207452	    -29.52313569	     10.05308244	     17.51878265	      0.00000000	    -16.31350006	      1.22402322	     -7.63944357	    -10.08844030	      4.86708792	     10.64379964	      0.00000000	    -61.52708739	     -2.35931107	      1.53036703
      6.62000000	     37.27664953	     -0.85275899	     -3.62379941	      1.38398128	      0.65983591	     -0.22626097	    -50.15234251	     -2.88913399	     -7.58863266	    -31.40104910	      8.04157774	     17.31602521	      0.00000000	    -16.67277304	      1.56620062	     -7.39850038	    -10.69456029	      4.54858917	     10.39866209	      0.00000000	    -61.54954541	     -2.59931663	      1.35605859
      6.62500000	     37.38714717	     -0.66239565	     -3.66154205	      1.38971427	      0.66036187	     -0.22677502	    -49.49648695	     -3.31915933	     -8.02756769	    -33.35350678	      5.98367806	     16.68274761	      0.00000000	    -16.92753315	      1.92140985	     -6.84008087	    -11.40736526	      4.29828107	      9.67026930	      0.00000000	    -61.61193391	     -2.74372257	      1.17293926
      6.63000000	     37.34145500	     -0.47664802	     -3.53345933	      1.39543401	      0.66080996	     -0.22747899	    -48.63563158	     -3.64737280	     -8.59633750	    -35.31599334	      3.84370314	     16.18377827	      0.00000000	    -16.97779302	      2.21597637	     -6.11642125	    -12.17750215	      4.24911129	      9.02433331	      0.00000000	    -61.52348747	     -2.72376661	      0.84990138
      6.63500000	     37.45179276	     -0.25806942	     -3.60315385	      1.40115882	      0.66139851	     -0.22792940	    -47.89833044	     -4.14612394	     -9.02786594	    -37.26786072	      1.75167903	     15.41765640	      0.00000000	    -17.32318734	      2.60735538	     -5.67858359	    -12.73629060	      4.11824266	      8.51140956	      0.00000000	    -61.57827187	     -2.91957865	      0.66354640
      6.64000000	     37.51785177	     -0.07651697	     -3.60575317	      1.40676833	      0.66195998	     -0.22848639	    -47.06242410	     -4.56890851	     -9.42557155	    -39.22055250	     -0.31451412	     14.54077013	      0.00000000	    -17.60823267	      2.95007692	     -5.12987920	    -13.31316689	      4.13462935	      7.89463358	      0.00000000	    -61.61443390	     -3.01494207	      0.47630713
      6.64500000	     37.39647913	      0.09526062	     -3.44464194	      1.41229251	      0.66240486	     -0.22921803	    -45.98593474	     -4.85932321	     -9.86298528	    -41.17783688	     -2.28525323	     13.65144774	      0.00000000	    -17.63788023	      3.22549963	     -4.40882939	    -13.97369865	      4.33468964	      7.26132454	      0.00000000	    -61.48297550	     -2.94417489	      0.22173626
      6.65000000	     37.49557319	      0.31552593	     -3.48769287	      1.41781536	      0.66300811	     -0.22968456	    -45.13574019	     -5.32956110	    -10.17597169	    -43.06858636	     -4.03913993	     12.58970158	      0.00000000	    -18.04549816	      3.61526679	     -3.96756162	    -14.38813820	      4.42922570	      6.73985568	      0.00000000	    -61.55913252	     -3.10305707	      0.03002589
